# AST/ASF file generated using VICON BodyLanguage
# -----------------------------------------------
:version 1.10
:name VICON
:units
  mass 1.0
  length 0.45
  angle deg
:documentation
   .ast/.asf automatically generated from VICON data using
   VICON BodyBuilder and BodyLanguage model FoxedUp or BRILLIANT.MOD
:root
   order TX TY TZ RX RY RZ
   axis XYZ
   position 0 0 0  
   orientation 0 0 0 
:bonedata
  begin
     id 1 
     name lhipjoint
     direction 0.64773 -0.699417 0.302095 
     length 2.48597 
     axis 0 0 0  XYZ
  end
  begin
     id 2 
     name lfemur
     direction 0.34202 -0.939693 0  
     length 6.71947  
     axis 0 0 20  XYZ
    dof rx ry rz
    limits (-160.0 20.0)
           (-70.0 70.0)
           (-60.0 70.0)
  end
  begin
     id 3 
     name ltibia
     direction 0.34202 -0.939693 0   
     length 8.08777   
     axis 0 0 20   XYZ
    dof rx
    limits (-10.0 170.0)
  end
  begin
     id 4 
     name lfoot
     direction 0.0808503 -0.222134 0.971658   
     length 2.08264   
     axis -90 7.62852e-016 20   XYZ
    dof rx rz
    limits (-45.0 90.0)
           (-70.0 20.0)
  end
  begin
     id 5 
     name ltoes
     direction 1.53502e-011 -4.22007e-011 1   
     length 1.04662   
     axis -90 7.62852e-016 20   XYZ
    dof rx
    limits (-90.0 20.0)
  end
  begin
     id 6 
     name rhipjoint
     direction -0.610924 -0.726792 0.313919   
     length 2.39233  
     axis 0 0 0  XYZ 
  end
  begin
     id 7 
     name rfemur
     direction -0.34202 -0.939693 0   
     length 6.96955   
     axis 0 0 -20   XYZ
    dof rx ry rz
    limits (-160.0 20.0)
           (-70.0 70.0)
           (-70.0 60.0)
  end
  begin
     id 8 
     name rtibia
     direction -0.34202 -0.939693 0   
     length 8.19584   
     axis 0 0 -20   XYZ
    dof rx
    limits (-10.0 170.0)
 end
 begin
     id 9 
     name rfoot
     direction -0.077777 -0.213691 0.9738   
     length 2.07539  
     axis -90 -7.62852e-016 -20   XYZ
    dof rx rz
    limits (-45.0 90.0)
           (-20.0 70.0)
  end
  begin
     id 10 
     name rtoes
     direction -1.53558e-011 -4.22006e-011 1   
     length 1.04381   
     axis -90 -7.62852e-016 -20   XYZ
    dof rx
    limits (-90.0 20.0)
  end
  begin
     id 11 
     name lowerback
     direction -0.00971646 0.996074 0.0879841   
     length 1.67643   
     axis 0 0 0   XYZ
    dof rx ry rz
    limits (-20.0 45.0)
           (-30.0 30.0)
           (-30.0 30.0)
  end
  begin
     id 12 
     name upperback
     direction 0.0127391 0.991676 0.128127   
     length 1.63741   
     axis 0 0 0   XYZ
    dof rx ry rz
    limits (-20.0 45.0)
           (-30.0 30.0)
           (-30.0 30.0)
  end
  begin
     id 13 
     name thorax
     direction 0.0167583 0.996049 0.0872067   
     length 1.65931   
     axis 0 0 0   XYZ
    dof rx ry rz
    limits (-20.0 45.0)
           (-30.0 30.0)
           (-30.0 30.0)
  end
  begin
     id 14 
     name lowerneck
     direction -0.0317829 0.998312 0.0486079   
     length 1.79021   
     axis 0 0 0   XYZ
    dof rx ry rz
    limits (-20.0 45.0)
           (-30.0 30.0)
           (-30.0 30.0)
  end
  begin
     id 15 
     name upperneck
     direction 0.0896851 0.972452 -0.215159   
     length 1.78797   
     axis 0 0 0   XYZ
    dof rx ry rz
    limits (-20.0 45.0)
           (-30.0 30.0)
           (-30.0 30.0)
  end
  begin
     id 16
     name head
     direction 0.0310949 0.996503 -0.0775582  
     length 1.81549  
     axis 0 0 0   XYZ
    dof rx ry rz
    limits (-20.0 45.0)
           (-30.0 30.0)
           (-30.0 30.0)
  end
  begin
     id 17 
     name lclavicle
     direction 0.853638 0.502051 -0.138733  
     length 3.31627  
     axis 0 0 0   XYZ
    dof ry rz
    limits (-20.0 10.0)
           (0.0 20.0)
  end
  begin
     id 18 
     name lhumerus
     direction 1 -4.48962e-011 -1.41788e-018   
     length 5.54893   
     axis 180 -30 -90   XYZ
    dof rx ry rz
    limits (-60.0 90.0)
           (-90.0 90.0)
           (-90.0 90.0)
  end
  begin
     id 19
     name lradius
     direction 1 -4.48962e-011 -4.95754e-027   
     length 3.02898   
     axis 180 -30 -90   XYZ
    dof rx
    limits (-10.0 170.0)
  end
  begin
     id 20
     name lwrist
     direction 1 -4.48952e-011 -1.03764e-026   
     length 1.51449   
     axis 9.09556e-015 90 90   XYZ
    dof ry
    limits (-180.0 0.0)
 end
  begin
     id 21 
     name lhand
     direction 1 -4.4902e-011 -2.07528e-026   
     length 0.640951   
     axis 1.3242e-014 90 90   XYZ
    dof rx rz
    limits (-90.0 90.0)
           (-45.0 45.0)
  end
  begin
     id 22 
     name lfingers
     direction 1 -4.49014e-011 -4.15056e-026   
     length 0.516751   
     axis 2.64841e-014 90 90   XYZ
    dof rx
    limits (0.0 90.0)
  end
  begin
     id 23
     name lthumb
     direction 0.707107 -6.35008e-011 0.707107   
     length 0.741954   
     axis -90 45 2.85299e-015   XYZ
    dof rx rz
    limits (-45.0 45.0)
           (-45.0 45.0)
  end
  begin
     id 24 
     name rclavicle
     direction -0.888531 0.455324 -0.0565039   
     length 3.20126  
     axis 0 0 0   XYZ 
    dof ry rz
    limits (-10.0 20.0)
           (-20.0 0.0)
  end
  begin
     id 25 
     name rhumerus
     direction -1 -4.48946e-011 -8.98298e-028  
     length 5.3519   
     axis 180 30 90   XYZ
    dof rx ry rz
    limits (-90.0 60.0)
           (-90.0 90.0)
           (-90.0 90.0)
  end
  begin
     id 26 
     name rradius
     direction -1 -4.4899e-011 -3.18779e-027   
     length 3.02531   
     axis 180 30 90   XYZ
    dof rx
    limits (-10.0 170.0)
  end
  begin
     id 27 
     name rwrist
     direction -1 -4.4897e-011 -1.03764e-026   
     length 1.51266   
     axis 9.09556e-015 -90 -90   XYZ
    dof ry
    limits (-180.0 0.0)
  end
  begin
     id 28
     name rhand
     direction -1 -4.48941e-011 -2.07528e-026   
     length 0.78389   
     axis 1.3242e-014 -90 -90   XYZ
    dof rx rz
    limits (-90.0 90.0)
           (-45.0 45.0)
  end
  begin
     id 29
     name rfingers
     direction -1 -4.49012e-011 -4.15056e-026   
     length 0.631992   
     axis 2.64841e-014 -90 -90   XYZ
    dof rx
    limits (0.0 90.0)
  end
  begin
     id 30
     name rthumb
     direction -0.707107 -6.3496e-011 0.707107   
     length 0.907418   
     axis -90 -45 -2.85299e-015   XYZ
    dof rx rz
    limits (-45.0 45.0)
           (-45.0 45.0)
  end
:hierarchy
  begin
    root lhipjoint rhipjoint lowerback
    lhipjoint lfemur
    lfemur ltibia
    ltibia lfoot
    lfoot ltoes
    rhipjoint rfemur
    rfemur rtibia
    rtibia rfoot
    rfoot rtoes
    lowerback upperback
    upperback thorax
    thorax lowerneck lclavicle rclavicle
    lowerneck upperneck
    upperneck head
    lclavicle lhumerus
    lhumerus lradius
    lradius lwrist
    lwrist lhand lthumb
    lhand lfingers
    rclavicle rhumerus
    rhumerus rradius
    rradius rwrist
    rwrist rhand rthumb
    rhand rfingers
  end

#!OML:ASF E:\Style3\Style3.ASF
:FULLY-SPECIFIED
:DEGREES
201
root 0.601652 17.7979 0.656366 -167.065 85.1323 178.677
lowerback -14.1973 -2.23686 -1.49314
upperback -10.7249 -2.06816 1.54415
thorax -3.27637 -0.595605 2.2094
lowerneck -9.93713 -3.31823 -6.71171
upperneck 21.513 -4.71923 7.67758
head 8.66985 -1.85745 3.25747
rclavicle -1.98785e-015 -5.1684e-015
rhumerus -26.4241 47.6923 -70.978
rradius 105.115
rwrist -14.5413
rhand 10.9346 23.2088
rfingers 7.12502
rthumb 36.0122 -3.10474
lclavicle -1.98785e-015 -5.1684e-015
lhumerus -26.0739 -49.1254 71.3591
lradius 103.676
lwrist 42.2666
lhand 9.82857 23.5542
lfingers 7.12502
lthumb 34.9637 50.1187
rfemur -11.6744 10.7869 18.9349
rtibia 14.7354
rfoot -16.9874 -25.0323
rtoes -9.52468
lfemur -5.35497 -24.419 -13.5304
ltibia 4.77083e-015
lfoot -9.99263 25.1944
ltoes -13.272
202
root 0.605764 17.7989 0.653601 -166.983 85.1959 178.723
lowerback -14.2238 -2.24438 -1.46609
upperback -10.7339 -2.07933 1.56479
thorax -3.27177 -0.60158 2.21409
lowerneck -9.90938 -3.29363 -6.66844
upperneck 21.4912 -4.69201 7.6715
head 8.65375 -1.84256 3.25085
rclavicle 1.39149e-015 -7.95139e-015
rhumerus -26.4734 47.5683 -70.9895
rradius 105.096
rwrist -15.0558
rhand 10.988 22.9388
rfingers 7.12502
rthumb 36.0629 -3.36221
lclavicle 1.39149e-015 -7.95139e-015
lhumerus -26.0675 -48.7184 71.2586
lradius 103.717
lwrist 42.3841
lhand 9.52871 23.4956
lfingers 7.12502
lthumb 34.6792 50.126
rfemur -11.7164 10.717 18.9168
rtibia 14.7483
rfoot -17.0131 -24.9061
rtoes -9.37028
lfemur -5.36935 -24.3549 -13.5474
ltibia 1.27222e-014
lfoot -10.0165 25.2008
ltoes -13.1149
203
root 0.610468 17.7983 0.651045 -166.647 85.2506 179.06
lowerback -14.2561 -2.25805 -1.44084
upperback -10.7186 -2.10068 1.59514
thorax -3.23694 -0.613764 2.22832
lowerneck -9.96022 -3.25733 -6.59612
upperneck 21.5687 -4.65293 7.66509
head 8.68438 -1.81621 3.24167
rclavicle 1.59028e-015 2.78299e-015
rhumerus -26.4275 47.4308 -70.8938
rradius 105.109
rwrist -15.5369
rhand 11.1337 22.7453
rfingers 7.12502
rthumb 36.2008 -3.52167
lclavicle 1.59028e-015 2.78299e-015
lhumerus -25.9888 -48.2069 71.1015
lradius 103.747
lwrist 42.4077
lhand 9.44507 23.6753
lfingers 7.12502
lthumb 34.5998 50.3239
rfemur -11.7242 10.7098 18.9309
rtibia 14.7707
rfoot -16.9993 -24.8682
rtoes -9.59148
lfemur -5.32375 -24.297 -13.5542
ltibia 1.59028e-015
lfoot -10.0495 25.1692
ltoes -13.1208
204
root 0.613614 17.7963 0.648353 -167.034 85.3292 178.688
lowerback -14.222 -2.24297 -1.42801
upperback -10.7266 -2.08338 1.57295
thorax -3.26563 -0.606493 2.20079
lowerneck -9.94123 -3.24267 -6.52238
upperneck 21.5808 -4.64406 7.65263
head 8.68207 -1.80697 3.22625
rclavicle -1.59028e-015 2.78299e-015
rhumerus -26.3552 47.1923 -70.7742
rradius 105.096
rwrist -15.962
rhand 11.4031 22.8006
rfingers 7.12502
rthumb 36.4559 -3.4026
lclavicle -1.59028e-015 2.78299e-015
lhumerus -25.9019 -47.644 70.9198
lradius 103.808
lwrist 42.3469
lhand 9.76382 23.7621
lfingers 7.12502
lthumb 34.9023 50.3409
rfemur -11.7047 10.7195 18.88
rtibia 14.766
rfoot -16.8937 -24.8642
rtoes -10.0829
lfemur -5.25568 -24.2319 -13.6375
ltibia 1.59028e-015
lfoot -10.203 25.1457
ltoes -12.8474
205
root 0.615367 17.7963 0.647248 -167.117 85.3693 178.595
lowerback -14.1841 -2.24899 -1.42386
upperback -10.7491 -2.09104 1.583
thorax -3.30954 -0.609134 2.20943
lowerneck -9.91385 -3.23886 -6.54361
upperneck 21.5941 -4.64732 7.70575
head 8.68342 -1.80473 3.24837
rclavicle 2.08724e-014 1.11319e-014
rhumerus -26.1451 46.9296 -70.512
rradius 105.105
rwrist -16.1865
rhand 11.6676 22.6787
rfingers 7.12502
rthumb 36.7063 -3.46112
lclavicle 2.08724e-014 1.11319e-014
lhumerus -25.7099 -47.0359 70.6454
lradius 103.931
lwrist 42.1968
lhand 10.1576 23.9706
lfingers 7.12502
lthumb 35.2758 50.4618
rfemur -11.7223 10.7232 18.8654
rtibia 14.7776
rfoot -16.8059 -24.8926
rtoes -10.3655
lfemur -5.25539 -24.195 -13.6626
ltibia -2.06736e-014
lfoot -10.0632 25.1787
ltoes -13.1275
206
root 0.617925 17.7965 0.646382 -166.757 85.4092 178.94
lowerback -14.2043 -2.23073 -1.37489
upperback -10.7545 -2.07077 1.58308
thorax -3.30732 -0.601271 2.1839
lowerneck -9.83484 -3.24516 -6.54851
upperneck 21.5536 -4.66914 7.76423
head 8.65806 -1.81117 3.26697
rclavicle -1.21259e-014 -1.98785e-015
rhumerus -25.7734 46.5075 -70.0971
rradius 105.101
rwrist -16.2642
rhand 12.2622 22.37
rfingers 7.12502
rthumb 37.2686 -3.62449
lclavicle -1.21259e-014 -1.98785e-015
lhumerus -25.334 -46.4296 70.2543
lradius 104.033
lwrist 41.9114
lhand 10.707 24.0939
lfingers 7.12502
lthumb 35.7966 50.4601
rfemur -11.7435 10.7443 18.8855
rtibia 14.8023
rfoot -16.9147 -24.8539
rtoes -10.1278
lfemur -5.2501 -24.1486 -13.6447
ltibia 1.59028e-015
lfoot -9.96456 25.1991
ltoes -13.1582
207
root 0.621442 17.7958 0.645216 -167.111 85.4916 178.591
lowerback -14.2377 -2.21888 -1.39649
upperback -10.7373 -2.0544 1.56497
thorax -3.27161 -0.593693 2.17782
lowerneck -9.82973 -3.24809 -6.41637
upperneck 21.5683 -4.67842 7.67315
head 8.65756 -1.81356 3.21244
rclavicle 3.57812e-015 -7.95139e-015
rhumerus -25.2634 45.996 -69.5844
rradius 105.078
rwrist -16.3149
rhand 13.1317 22.2506
rfingers 7.12502
rthumb 38.0902 -3.524
lclavicle 3.57812e-015 -7.95139e-015
lhumerus -24.8433 -45.6565 69.7633
lradius 104.122
lwrist 41.4402
lhand 11.8376 24.3202
lfingers 7.12502
lthumb 36.8671 50.4189
rfemur -11.7462 10.7218 18.8395
rtibia 14.818
rfoot -16.9258 -24.7697
rtoes -10.0634
lfemur -5.1958 -24.0768 -13.7138
ltibia 3.18055e-015
lfoot -10.1635 25.1581
ltoes -12.8081
208
root 0.623642 17.7938 0.644014 -166.854 85.5634 178.898
lowerback -14.2035 -2.20372 -1.364
upperback -10.7025 -2.04346 1.54872
thorax -3.25412 -0.593221 2.14412
lowerneck -9.86924 -3.24207 -6.31926
upperneck 21.6066 -4.68991 7.68461
head 8.67666 -1.80807 3.199
rclavicle 3.57812e-015 -3.18055e-015
rhumerus -24.7182 45.4069 -69.0586
rradius 105.093
rwrist -16.3434
rhand 14.08 21.972
rfingers 7.12502
rthumb 38.985 -3.55233
lclavicle 3.57812e-015 -3.18055e-015
lhumerus -24.2024 -44.8421 69.1183
lradius 104.236
lwrist 40.919
lhand 12.982 24.5505
lfingers 7.12502
lthumb 37.9489 50.3636
rfemur -11.6904 10.7266 18.861
rtibia 14.807
rfoot -16.9664 -24.6915
rtoes -9.67564
lfemur -5.09729 -24.007 -13.7398
ltibia 6.36111e-015
lfoot -10.37 25.1168
ltoes -12.5521
209
root 0.624422 17.7936 0.643553 -166.765 85.6147 179.033
lowerback -14.1492 -2.21307 -1.35719
upperback -10.6887 -2.06048 1.55373
thorax -3.26719 -0.60341 2.14477
lowerneck -9.89311 -3.22574 -6.30856
upperneck 21.6984 -4.6813 7.73672
head 8.71254 -1.79493 3.2177
rclavicle 1.78906e-014 -1.19271e-015
rhumerus -24.1293 44.807 -68.4578
rradius 105.128
rwrist -16.3959
rhand 14.9347 21.7236
rfingers 7.12502
rthumb 39.7902 -3.5654
lclavicle 1.78906e-014 -1.19271e-015
lhumerus -23.4976 -44.0372 68.3979
lradius 104.404
lwrist 40.3886
lhand 13.8428 24.7798
lfingers 7.12502
lthumb 38.7613 50.3678
rfemur -11.6336 10.7374 18.8744
rtibia 14.8022
rfoot -16.9503 -24.6603
rtoes -10.0461
lfemur -5.02626 -23.96 -13.7684
ltibia -1.59028e-014
lfoot -10.3922 25.095
ltoes -12.5281
210
root 0.62579 17.7939 0.642767 -166.637 85.6357 179.175
lowerback -14.1394 -2.20898 -1.31408
upperback -10.6844 -2.06088 1.52875
thorax -3.26995 -0.607362 2.0945
lowerneck -9.86286 -3.22571 -6.40076
upperneck 21.7299 -4.70754 7.93203
head 8.72639 -1.79404 3.29896
rclavicle 2.5345e-014 9.93923e-015
rhumerus -23.4829 44.1357 -67.7647
rradius 105.182
rwrist -16.5828
rhand 15.8007 21.5871
rfingers 7.12502
rthumb 40.6048 -3.45364
lclavicle 2.5345e-014 9.93923e-015
lhumerus -22.6476 -43.2649 67.5863
lradius 104.596
lwrist 39.8135
lhand 14.7515 24.9898
lfingers 7.12502
lthumb 39.6177 50.33
rfemur -11.6075 10.7382 18.8852
rtibia 14.7867
rfoot -16.9218 -24.6371
rtoes -10.2092
lfemur -5.00113 -23.9388 -13.7723
ltibia 1.59028e-015
lfoot -10.4538 25.0727
ltoes -12.2637
211
root 0.629206 17.7937 0.643346 -166.585 85.639 179.264
lowerback -14.1393 -2.18164 -1.28958
upperback -10.6664 -2.02979 1.47059
thorax -3.25462 -0.596216 2.023
lowerneck -9.81497 -3.27602 -6.46778
upperneck 21.7193 -4.81072 8.13723
head 8.72877 -1.82737 3.37033
rclavicle -6.4605e-016 2.74323e-014
rhumerus -22.7975 43.2886 -66.9999
rradius 105.243
rwrist -16.5223
rhand 16.544 21.5419
rfingers 7.12502
rthumb 41.303 -3.27739
lclavicle -6.4605e-016 2.74323e-014
lhumerus -21.6487 -42.5501 66.635
lradius 104.826
lwrist 39.3664
lhand 15.4779 25.1523
lfingers 7.12502
lthumb 40.3013 50.2867
rfemur -11.5429 10.7702 18.9106
rtibia 14.7688
rfoot -16.857 -24.7195
rtoes -10.792
lfemur -4.94446 -23.9375 -13.7842
ltibia -1.59028e-015
lfoot -10.4498 25.08
ltoes -12.3377
212
root 0.632431 17.7931 0.645881 -166.172 85.7372 179.619
lowerback -14.2324 -2.13859 -1.29986
upperback -10.6586 -1.97002 1.44649
thorax -3.20011 -0.566488 2.00796
lowerneck -9.8175 -3.31613 -6.47404
upperneck 21.7468 -4.88321 8.21601
head 8.74673 -1.85278 3.39129
rclavicle -1.32192e-014 -8.74653e-015
rhumerus -21.9148 42.3936 -66.0679
rradius 105.282
rwrist -16.408
rhand 16.935 21.4205
rfingers 7.12502
rthumb 41.6699 -3.27919
lclavicle -1.32192e-014 -8.74653e-015
lhumerus -20.5771 -41.8218 65.6021
lradius 105.102
lwrist 38.9612
lhand 15.8215 25.0722
lfingers 7.12502
lthumb 40.6243 50.1068
rfemur -11.5947 10.8802 18.9148
rtibia 14.7422
rfoot -16.8571 -24.7202
rtoes -10.6625
lfemur -4.96965 -23.8283 -13.7554
ltibia -1.27222e-014
lfoot -10.5062 25.0652
ltoes -12.252
213
root 0.633504 17.793 0.649098 -164.936 86.0148 180.719
lowerback -14.349 -2.00307 -1.26587
upperback -10.6973 -1.78745 1.41318
thorax -3.19065 -0.474741 1.97276
lowerneck -9.79481 -3.37541 -6.48203
upperneck 21.7804 -4.98042 8.28351
head 8.76409 -1.8911 3.40633
rclavicle -3.72721e-015 1.19271e-015
rhumerus -21.0336 41.3332 -65.0724
rradius 105.327
rwrist -16.454
rhand 17.0329 21.0863
rfingers 7.12502
rthumb 41.7616 -3.58309
lclavicle -3.72721e-015 1.19271e-015
lhumerus -19.41 -41.1996 64.5243
lradius 105.392
lwrist 38.5777
lhand 15.3127 24.5149
lfingers 7.12502
lthumb 40.1459 49.6968
rfemur -11.7809 10.9409 18.9151
rtibia 14.72
rfoot -16.6805 -24.5233
rtoes -10.6899
lfemur -5.05638 -23.5233 -13.6889
ltibia -6.36111e-015
lfoot -10.5157 25.0376
ltoes -12.2674
214
root 0.633783 17.7931 0.651019 -163.748 86.16 181.829
lowerback -14.4274 -1.92469 -1.24206
upperback -10.6989 -1.68398 1.40286
thorax -3.15648 -0.423814 1.95895
lowerneck -9.80825 -3.42168 -6.51921
upperneck 21.7685 -5.05634 8.36953
head 8.77212 -1.92094 3.43372
rclavicle -4.91992e-015 -1.96797e-014
rhumerus -19.9834 40.15 -63.9478
rradius 105.358
rwrist -16.4118
rhand 17.0085 21.2027
rfingers 7.12502
rthumb 41.7387 -3.47428
lclavicle -4.91992e-015 -1.96797e-014
lhumerus -18.1153 -40.289 63.3767
lradius 105.787
lwrist 37.9944
lhand 14.654 24.2744
lfingers 7.12502
lthumb 39.5258 49.6418
rfemur -11.8915 11.0141 18.9406
rtibia 14.713
rfoot -16.6071 -24.4647
rtoes -10.8958
lfemur -5.11471 -23.3529 -13.6163
ltibia 1.74931e-014
lfoot -10.4888 25.0208
ltoes -12.4102
215
root 0.635062 17.7919 0.65064 -163.724 86.1798 181.882
lowerback -14.4267 -1.88812 -1.23243
upperback -10.6545 -1.64186 1.35902
thorax -3.11194 -0.407381 1.91197
lowerneck -9.86222 -3.47539 -6.58029
upperneck 21.781 -5.14299 8.47849
head 8.79839 -1.95424 3.47206
rclavicle 6.65929e-015 -6.36111e-015
rhumerus -18.792 38.7582 -62.7348
rradius 105.418
rwrist -16.3129
rhand 17.0344 21.568
rfingers 7.12502
rthumb 41.763 -3.10091
lclavicle 6.65929e-015 -6.36111e-015
lhumerus -16.5954 -39.0643 62.05
lradius 106.239
lwrist 37.0544
lhand 14.4096 24.3909
lfingers 7.12502
lthumb 39.2956 49.8256
rfemur -11.8484 11.0225 18.9464
rtibia 14.701
rfoot -16.5237 -24.4961
rtoes -11.2297
lfemur -5.06353 -23.3363 -13.6373
ltibia 7.95139e-015
lfoot -10.5748 25.0113
ltoes -12.1751
